<svg width="48" height="63" xmlns="http://www.w3.org/2000/svg">
 <title/>

 <desc/>
 <g>
  <title>background</title>
  <rect fill="none" id="canvas_background" height="65" width="50" y="-1" x="-1"/>
 </g>
 <g>
  <title>Layer 1</title>
  <path id="Path" fill="#F9D349" d="m37.00001,8l-30.00002,0l0.00001,-5.915c-0.00109,-0.27428 0.11154,-0.53675 0.31109,-0.72492c0.19955,-0.18818 0.46817,-0.28524 0.74191,-0.26808c9.28957,0.56 18.60443,0.56 27.894,0c0.27374,-0.01716 0.54236,0.0799 0.74191,0.26808c0.19955,0.18817 0.31218,0.45064 0.31109,0.72492l0.00001,5.915z"/>
  <path id="Path" fill="#76523A" d="m37.197581,44.370014l-1.02,10.2c-0.10271,1.02198 -0.96287,1.80001 -1.99,1.8l-22.38,0c-1.02713,0.00001 -1.88729,-0.77802 -1.99,-1.8l-1.02,-10.2l-2.5,-25l-1.2,-12l-0.1,-3l36,0.222l-0.1,2.778l-1.2,12l-2.5,25z"/>
  <path id="Path" fill="#F9D349" d="m36.113,47l-28.226,0c-0.5063,0.00005 -0.93275,-0.3783 -0.993,-0.881l-2.76,-23c-0.03403,-0.28393 0.05513,-0.56885 0.24493,-0.78274c0.18981,-0.21389 0.46211,-0.33629 0.74807,-0.33626l33.746,0c0.28597,-0.00003 0.55826,0.12237 0.74807,0.33626c0.1898,0.21389 0.27896,0.49881 0.24493,0.78274l-2.76,23c-0.06025,0.5027 -0.4867,0.88105 -0.993,0.881z"/>
  <rect y="6" x="1" width="43" rx="1" id="Rectangle" height="4" fill="#EBC741"/>
  <path id="Path" fill="#FFFFFF" d="m8.919,19c-0.51318,-0.00051 -0.94268,-0.38939 -0.994,-0.9l-0.4,-4c-0.05523,-0.5498 0.3457,-1.04027 0.8955,-1.0955c0.5498,-0.05523 1.04027,0.3457 1.0955,0.8955l0.4,4c0.02793,0.26486 -0.05095,0.52992 -0.21915,0.73641c-0.1682,0.20649 -0.41182,0.33736 -0.67685,0.36359c-0.03364,0.00194 -0.06736,0.00194 -0.101,0z"/>
  <path id="Path" fill="#FFFFFF" d="m12.619,56c-0.51318,-0.00051 -0.94268,-0.38939 -0.994,-0.9l-0.4,-4c-0.05523,-0.54952 0.34548,-1.03977 0.895,-1.095c0.54952,-0.05523 1.03977,0.34548 1.095,0.895l0.4,4c0.02794,0.2647 -0.05081,0.52962 -0.21879,0.73608c-0.16799,0.20647 -0.41136,0.33744 -0.67621,0.36392c-0.034,0 -0.068,0 -0.101,0z"/>
  <path id="Path" fill="#FFFFFF" d="m8.748,29c-0.50592,-0.00045 -0.9318,-0.37868 -0.992,-0.881l-0.24,-2c-0.06572,-0.54842 0.32558,-1.04628 0.874,-1.112c0.54842,-0.06572 1.04628,0.32558 1.112,0.874l0.24,2c0.03159,0.26337 -0.04275,0.52849 -0.20666,0.73704c-0.16392,0.20855 -0.40397,0.34343 -0.66734,0.37496c-0.03982,0.00479 -0.07989,0.00713 -0.12,0.007z"/>
  <path id="Path" fill="#FFFFFF" d="m10.428,43c-0.50592,-0.00045 -0.9318,-0.37868 -0.992,-0.881l-1.2,-10c-0.06572,-0.54869 0.32581,-1.04678 0.8745,-1.1125c0.54869,-0.06572 1.04678,0.32581 1.1125,0.8745l1.2,10c0.03159,0.26337 -0.04275,0.52849 -0.20666,0.73704c-0.16392,0.20855 -0.40397,0.34343 -0.66734,0.37496c-0.04015,0.00484 -0.08056,0.00717 -0.121,0.007z"/>
  <path id="Shape" fill-rule="nonzero" fill="#000000" d="m-6.425591,11.529619l-5,0l0,-4c0.00014,-0.27656 -0.11425,-0.54083 -0.316,-0.73c-0.20059,-0.19198 -0.47307,-0.29008 -0.75,-0.27l-0.367,0.025c-9.70066,0.644 -19.43334,0.644 -29.134,0l-0.367,-0.025c-0.27663,-0.02061 -0.54907,0.07675 -0.75,0.268c-0.20225,0.18964 -0.3167,0.45474 -0.316,0.732l0,4l-4,0c-1.10457,0 -2,0.89543 -2,2l0,2c0,1.10457 0.89543,2 2,2l1.2,0l1.023,10.228c-0.75086,0.37172 -1.18303,1.17903 -1.076,2.01l2.759,23c0.07481,0.61601 0.43131,1.1624 0.965,1.479l1.134,11.383c0.05154,0.5129 0.48452,0.90258 1,0.9l25.995,0c0.51548,0.00258 0.94846,-0.3871 1,-0.9l1.139,-11.383c0.53369,-0.3166 0.89019,-0.86299 0.965,-1.479l2.759,-23c0.10762,-0.8316 -0.3246,-1.6398 -1.076,-2.012l1.018,-10.226l2.195,0c1.10457,0 2,-0.89543 2,-2l0,-2c0,-1.10457 -0.89543,-2 -2,-2zm-35,-2.932c9.32401,0.59 18.67599,0.59 28,0l0,2.932l-28,0l0,-2.932zm26.1,55.932l-24.195,0l-1,-10l26.195,0l-1,10zm2.019,-12l-28.231,0l-2.761,-23l33.745,0l-2.753,23zm1.681,-25l-31.595,0l-1,-10l33.595,0l-1,10zm2.1,-12l-37.9,0l0,-2l41,0l0,2l-3.1,0z"/>
 </g>
</svg>